<?xml version="1.0" encoding="UTF-8" standalone="no"?>
<!-- Created with Inkscape (http://www.inkscape.org/) -->

<svg
   xmlns:dc="http://purl.org/dc/elements/1.1/"
   xmlns:cc="http://creativecommons.org/ns#"
   xmlns:rdf="http://www.w3.org/1999/02/22-rdf-syntax-ns#"
   xmlns:svg="http://www.w3.org/2000/svg"
   xmlns="http://www.w3.org/2000/svg"
   xmlns:sodipodi="http://sodipodi.sourceforge.net/DTD/sodipodi-0.dtd"
   xmlns:inkscape="http://www.inkscape.org/namespaces/inkscape"
   width="500mm"
   height="500mm"
   viewBox="0 0 499.99996 499.99999"
   version="1.1"
   id="svg8"
   sodipodi:docname="rotation-center.svg"
   inkscape:version="0.92.3 (2405546, 2018-03-11)">
  <defs
     id="defs2" />
  <sodipodi:namedview
     id="base"
     pagecolor="#ffffff"
     bordercolor="#666666"
     borderopacity="1.0"
     inkscape:pageopacity="0.0"
     inkscape:pageshadow="2"
     inkscape:zoom="0.51011667"
     inkscape:cx="944.88189"
     inkscape:cy="944.88189"
     inkscape:document-units="mm"
     inkscape:current-layer="layer2"
     showgrid="true"
     units="mm"
     objecttolerance="5"
     inkscape:window-width="1877"
     inkscape:window-height="1145"
     inkscape:window-x="1920"
     inkscape:window-y="27"
     inkscape:window-maximized="1"
     inkscape:snap-global="true"
     inkscape:showpageshadow="false"
     inkscape:pagecheckerboard="false">
    <inkscape:grid
       type="xygrid"
       id="grid10"
       spacingx="9.9999994"
       spacingy="9.9999994"
       units="mm" />
  </sodipodi:namedview>
  <metadata
     id="metadata5">
    <rdf:RDF>
      <cc:Work
         rdf:about="">
        <dc:format>image/svg+xml</dc:format>
        <dc:type
           rdf:resource="http://purl.org/dc/dcmitype/StillImage" />
        <dc:title></dc:title>
      </cc:Work>
    </rdf:RDF>
  </metadata>
  <g
     inkscape:label="Layer 1"
     inkscape:groupmode="layer"
     id="layer1">
    <path
       id="path3717"
       style="fill:none;stroke:#000000;stroke-width:0.99999988px;stroke-linecap:butt;stroke-linejoin:miter;stroke-opacity:1"
       d="M 249.99998,0.04126661 V 500.04119 M 0,250.04122 h 499.99994"
       inkscape:connector-curvature="0"
       inkscape:label="Grid-0"
       sodipodi:insensitive="true" />
    <path
       id="path3733"
       style="display:inline;fill:none;stroke:#000000;stroke-width:0.49999994;stroke-linecap:butt;stroke-linejoin:miter;stroke-miterlimit:4;stroke-dasharray:0.49999995, 0.49999995;stroke-dashoffset:0;stroke-opacity:1"
       d="M 49.999998,500.08088 V 0.08093963 m 399.999972,0 V 500.08088 M 349.99998,0.08093963 V 500.08088 M 149.99999,0.08093963 V 500.08088 M 0,450.08091 H 499.99994 M 0,350.08092 H 499.99994 M 0,50.080946 H 499.99994 M 0,150.08092 h 499.99994"
       inkscape:connector-curvature="0"
       inkscape:label="Grid-10"
       sodipodi:insensitive="true" />
    <path
       id="path4555"
       style="display:inline;fill:none;stroke:#000000;stroke-width:0.24999997;stroke-linecap:butt;stroke-linejoin:miter;stroke-miterlimit:4;stroke-dasharray:0.24999997, 0.24999997;stroke-dashoffset:0;stroke-opacity:1"
       d="m 0,399.59141 h 499.99994 m 0,-99.99998 H 0 m 0,-99.99998 h 499.99994 m 0,-100.000017 H 0 M 399.99996,499.59139 V -0.4085437 m -99.99998,0 V 499.59139 m -99.99999,0 V -0.4085437 m -99.999997,0 V 499.59139"
       inkscape:connector-curvature="0"
       inkscape:label="Grid-5"
       sodipodi:insensitive="true" />
    <path
       id="path4768"
       style="font-style:normal;font-weight:normal;font-size:2.82222223px;line-height:1.25;font-family:sans-serif;letter-spacing:0px;word-spacing:0px;display:inline;fill:#c8c8c8;fill-opacity:1;stroke:none;stroke-width:0.99999988"
       d="m 254.03124,41.713444 -2.65625,4.15104 h 2.65625 z m -0.27605,-0.91666 h 1.32291 v 5.0677 h 1.10938 v 0.87501 h -1.10938 v 1.83333 h -1.04686 v -1.83333 h -3.51041 v -1.01563 z m 0.57293,53.583317 q 0.75521,0.16147 1.17708,0.671883 0.42708,0.51042 0.42708,1.26041 0,1.151053 -0.79166,1.781263 -0.79167,0.6302 -2.25,0.6302 -0.48959,0 -1.01042,-0.0989 -0.51562,-0.0937 -1.0677,-0.28645 v -1.015633 q 0.43749,0.255203 0.95833,0.385423 0.52083,0.1302 1.08854,0.1302 0.98958,0 1.50521,-0.39062 0.52083,-0.390633 0.52083,-1.135423 0,-0.6875 -0.48437,-1.07291 -0.47917,-0.39063 -1.33855,-0.39063 h -0.90624 v -0.864603 h 0.94791 q 0.77604,0 1.1875,-0.30728 0.41146,-0.31249 0.41146,-0.89583 0,-0.59896 -0.42708,-0.916657 -0.42188,-0.32293 -1.21355,-0.32293 -0.43229,0 -0.92708,0.0938 -0.49479,0.0938 -1.08854,0.29167 v -0.9375 q 0.59896,-0.16668 1.11979,-0.24998 0.52604,-0.0833 0.98958,-0.0833 1.19792,0 1.89584,0.54688 0.69791,0.54166 0.69791,1.468747 0,0.64583 -0.36978,1.09375 -0.36979,0.44271 -1.05209,0.61458 z m -2.28125,53.307309 h 3.67187 v 0.88542 h -4.93749 v -0.88542 q 0.59895,-0.61979 1.6302,-1.66146 1.03646,-1.04687 1.30209,-1.34896 0.50521,-0.5677 0.70312,-0.95833 0.20311,-0.39583 0.20311,-0.77604 0,-0.61979 -0.4375,-1.01042 -0.43229,-0.39062 -1.13021,-0.39062 -0.49479,0 -1.04687,0.17189 -0.54688,0.17186 -1.17188,0.52083 v -1.0625 q 0.63542,-0.25519 1.1875,-0.38541 0.55209,-0.13021 1.01042,-0.13021 1.20833,0 1.92708,0.60417 0.71875,0.60417 0.71875,1.61458 0,0.47917 -0.18228,0.91146 -0.17707,0.42708 -0.65104,1.01042 -0.13021,0.15102 -0.82813,0.875 -0.69792,0.71875 -1.96875,2.01562 z m -0.72396,49.99999 h 1.71875 v -5.93229 l -1.86979,0.375 v -0.95833 l 1.85937,-0.37501 h 1.05209 v 6.89063 h 1.71875 v 0.88542 h -4.47917 z m 6.5625,244.02621 -2.65625,4.151 h 2.65625 z m -0.27605,-0.9167 h 1.32291 v 5.0677 h 1.10937 v 0.875 h -1.10937 v 1.8334 h -1.04687 v -1.8334 h -3.51042 v -1.0156 z m -7.08853,4.4271 h 2.80729 v 0.8542 h -2.80729 z m 7.66146,-50.8438 q 0.7552,0.1614 1.17708,0.6719 0.42708,0.5104 0.42708,1.2604 0,1.1511 -0.79166,1.7813 -0.79167,0.6302 -2.25001,0.6302 -0.48958,0 -1.01041,-0.099 -0.51563,-0.094 -1.06771,-0.2865 v -1.0156 q 0.4375,0.2551 0.95833,0.3854 0.52084,0.1304 1.08855,0.1304 0.98958,0 1.5052,-0.3907 0.52084,-0.3906 0.52084,-1.1354 0,-0.6875 -0.48438,-1.0729 -0.47916,-0.3906 -1.33854,-0.3906 h -0.90625 v -0.8646 h 0.94792 q 0.77604,0 1.1875,-0.3073 0.41146,-0.3125 0.41146,-0.8958 0,-0.5989 -0.42709,-0.9166 -0.42187,-0.3228 -1.21354,-0.3228 -0.43229,0 -0.92708,0.094 -0.49479,0.094 -1.08854,0.2918 v -0.9375 q 0.59895,-0.1667 1.11979,-0.2499 0.52604,-0.084 0.98958,-0.084 1.19792,0 1.89583,0.5469 0.69792,0.5417 0.69792,1.4688 0,0.6458 -0.36979,1.0937 -0.36979,0.4427 -1.05208,0.6146 z m -7.66146,0.8438 h 2.80729 v 0.8542 h -2.80729 z m 5.38021,-47.53661 h 3.67187 v 0.88541 h -4.9375 v -0.88541 q 0.59896,-0.61979 1.63021,-1.66146 1.03646,-1.04687 1.30208,-1.34896 0.50521,-0.56771 0.70313,-0.95833 0.20311,-0.39583 0.20311,-0.77604 0,-0.6198 -0.4375,-1.01042 -0.43229,-0.39062 -1.13021,-0.39062 -0.49479,0 -1.04688,0.17185 -0.54687,0.17186 -1.17187,0.52084 v -1.06251 q 0.63542,-0.25519 1.1875,-0.38541 0.55208,-0.13021 1.01041,-0.13021 1.20834,0 1.92709,0.60417 0.71875,0.60417 0.71875,1.61458 0,0.47917 -0.18229,0.91146 -0.17707,0.42708 -0.65104,1.01042 -0.1302,0.15103 -0.82812,0.875 -0.69792,0.71875 -1.96875,2.01562 z m -5.38021,-2.46354 h 2.80729 v 0.85416 h -2.80729 z m 4.65625,-47.53645 h 1.71875 v -5.9323 l -1.86979,0.37501 v -0.95834 l 1.85937,-0.375 h 1.05208 v 6.89063 h 1.71876 v 0.88541 h -4.47917 z m -4.65625,-2.46355 h 2.80729 v 0.85417 h -2.80729 z M 57.885411,241.71346 55.22916,245.8645 h 2.656251 z m -0.276056,-0.91667 h 1.322914 v 5.06771 h 1.109378 v 0.875 h -1.109378 v 1.83333 h -1.046873 v -1.83333 h -3.510417 v -1.01563 z m -7.088527,4.42708 h 2.80729 v 0.85417 h -2.80729 z m 57.661452,-0.84375 q 0.75521,0.16147 1.17708,0.67188 0.42709,0.51042 0.42709,1.26041 0,1.15105 -0.79167,1.78125 -0.79167,0.63021 -2.25,0.63021 -0.48958,0 -1.01042,-0.099 -0.51562,-0.0937 -1.06771,-0.28645 v -1.01562 q 0.4375,0.25519 0.95834,0.38542 0.52083,0.1302 1.08854,0.1302 0.98959,0 1.50521,-0.39062 0.52083,-0.39062 0.52083,-1.13542 0,-0.6875 -0.48437,-1.07292 -0.47917,-0.39062 -1.33854,-0.39062 h -0.90626 v -0.86458 h 0.94792 q 0.77604,0 1.1875,-0.30728 0.41146,-0.31249 0.41146,-0.89583 0,-0.59896 -0.42708,-0.91667 -0.42188,-0.32292 -1.21354,-0.32292 -0.43229,0 -0.92709,0.0938 -0.49479,0.0938 -1.08854,0.29167 v -0.9375 q 0.59896,-0.16668 1.11979,-0.25002 0.52604,-0.0833 0.98958,-0.0833 1.19792,0 1.89584,0.54688 0.69791,0.54166 0.69791,1.46875 0,0.64583 -0.36979,1.09375 -0.36978,0.4427 -1.05208,0.61458 z m -7.66146,0.84375 h 2.80729 v 0.85417 h -2.80729 z m 55.38021,2.46354 h 3.67188 v 0.88542 h -4.9375 v -0.88542 q 0.59895,-0.61979 1.63021,-1.66145 1.03645,-1.04688 1.30208,-1.34896 0.50521,-0.56771 0.70313,-0.95833 0.20311,-0.39584 0.20311,-0.77604 0,-0.6198 -0.4375,-1.01042 -0.43229,-0.39063 -1.13021,-0.39063 -0.49479,0 -1.04688,0.17189 -0.54687,0.17186 -1.17187,0.52083 v -1.06249 q 0.63542,-0.2552 1.1875,-0.38542 0.55208,-0.1302 1.01041,-0.1302 1.20834,0 1.92709,0.60416 0.71875,0.60417 0.71875,1.61458 0,0.47917 -0.18229,0.91146 -0.17707,0.42709 -0.65104,1.01042 -0.1302,0.15103 -0.82812,0.875 -0.69792,0.71875 -1.96876,2.01562 z m -5.38021,-2.46354 h 2.80729 v 0.85417 h -2.80729 z m 54.65624,2.46354 h 1.71875 v -5.93228 l -1.86979,0.375 v -0.95833 l 1.85938,-0.37501 h 1.05208 v 6.89062 h 1.71875 v 0.88542 h -4.47917 z m -4.65625,-2.46354 h 2.80729 v 0.85417 h -2.80729 z m 253.51041,-3.51041 -2.65625,4.15104 h 2.65625 z m -0.27591,-0.91667 h 1.32291 v 5.06771 h 1.10937 v 0.875 h -1.10937 v 1.83333 h -1.04689 v -1.83333 h -3.51042 v -1.01563 z m -49.42722,3.58333 q 0.75519,0.16147 1.17706,0.67188 0.42708,0.51042 0.42708,1.26041 0,1.15105 -0.79166,1.78125 -0.79166,0.63021 -2.24999,0.63021 -0.4896,0 -1.01042,-0.099 -0.51564,-0.0937 -1.06771,-0.28645 v -1.01562 q 0.43752,0.25519 0.95834,0.38542 0.52085,0.1302 1.08854,0.1302 0.98959,0 1.50519,-0.39062 0.52086,-0.39062 0.52086,-1.13542 0,-0.6875 -0.48438,-1.07292 -0.47917,-0.39062 -1.33856,-0.39062 h -0.90622 v -0.86458 h 0.94791 q 0.77605,0 1.18749,-0.30728 0.41147,-0.31249 0.41147,-0.89583 0,-0.59896 -0.42708,-0.91667 -0.42187,-0.32292 -1.21357,-0.32292 -0.43227,0 -0.92708,0.0938 -0.49478,0.0938 -1.08854,0.29167 v -0.9375 q 0.59898,-0.16668 1.1198,-0.25002 0.52603,-0.0833 0.98959,-0.0833 1.19792,0 1.89585,0.54688 0.69789,0.54166 0.69789,1.46875 0,0.64583 -0.36964,1.09375 -0.36964,0.4427 -1.05207,0.61458 z m -52.28125,3.30729 h 3.67188 v 0.88542 h -4.9375 v -0.88542 q 0.59896,-0.61979 1.63021,-1.66145 1.03645,-1.04688 1.30208,-1.34896 0.50521,-0.56771 0.70313,-0.95833 0.20311,-0.39584 0.20311,-0.77604 0,-0.6198 -0.4375,-1.01042 -0.43229,-0.39063 -1.13021,-0.39063 -0.49479,0 -1.04687,0.17189 -0.54688,0.17186 -1.17188,0.52083 v -1.06249 q 0.63542,-0.2552 1.1875,-0.38542 0.55208,-0.1302 1.01042,-0.1302 1.20833,0 1.92708,0.60416 0.71875,0.60417 0.71875,1.61458 0,0.47917 -0.18228,0.91146 -0.17708,0.42709 -0.65104,1.01042 -0.13021,0.15103 -0.82813,0.875 -0.69792,0.71875 -1.96875,2.01562 z m -50.72394,0 h 1.71875 v -5.93228 l -1.86979,0.375 v -0.95833 l 1.85937,-0.37501 h 1.05209 v 6.89062 h 1.71875 v 0.88542 h -4.47917 z m -47.93228,-6.19791 q -0.8125,0 -1.22396,0.80208 -0.40625,0.79688 -0.40625,2.40104 0,1.59896 0.40625,2.40105 0.41146,0.79687 1.22396,0.79687 0.81771,0 1.22396,-0.79687 0.41146,-0.80209 0.41146,-2.40105 0,-1.60416 -0.41146,-2.40104 -0.40625,-0.80208 -1.22396,-0.80208 z m 0,-0.83333 q 1.30729,0 1.99479,1.03645 0.69271,1.03125 0.69271,3 0,1.96355 -0.69271,3 -0.6875,1.03125 -1.99479,1.03125 -1.30729,0 -2,-1.03125 -0.6875,-1.03645 -0.6875,-3 0,-1.96875 0.6875,-3 0.69271,-1.03645 2,-1.03645 z"
       inkscape:connector-curvature="0"
       inkscape:label="Coords"
       sodipodi:insensitive="true" />
  </g>
  <g
     inkscape:groupmode="layer"
     id="layer2"
     inkscape:label="Object"
     style="display:inline">
    <path
       id="path4794"
       style="fill:#00ff00;fill-opacity:1;stroke:#008000;stroke-width:1.99999976;stroke-linecap:round;stroke-linejoin:round;stroke-miterlimit:4;stroke-dasharray:none;stroke-dashoffset:0;stroke-opacity:1"
       d="m 255,250.06254 a 4.9999994,4.9999995 0 0 1 -5,5 4.9999994,4.9999995 0 0 1 -5.00001,-5 4.9999994,4.9999995 0 0 1 5.00001,-5 4.9999994,4.9999995 0 0 1 5,5 z m -5.00002,-2e-5 h 50 v 20.00001 h -30 v 20 h 10 v 20 h -10 v 20 h -20 z"
       inkscape:connector-curvature="0"
       inkscape:label="F"
       sodipodi:insensitive="true" />
    <circle
       style="fill:#00ffff;fill-opacity:1;stroke:#008080;stroke-width:0.99999988;stroke-linejoin:round;stroke-miterlimit:4;stroke-dasharray:none;stroke-dashoffset:0;stroke-opacity:1"
       id="path4562"
       cx="299.99997"
       cy="150.06255"
       r="2.4999998"
       inkscape:label="RotationCenter"
       sodipodi:insensitive="true" />
  </g>
</svg>
