ply
format ascii 1.0
comment Created by Blender 2.80 (sub 75) - www.blender.org, source file: ''
element vertex 63
property float x
property float y
property float z
property float nx
property float ny
property float nz
property float s
property float t
element face 80
property list uchar uint vertex_indices
end_header
0.000000 0.000000 -1.000000 0.000000 0.000000 -1.000000 0.818181 0.000000
0.425323 -0.309011 -0.850654 0.425306 -0.309000 -0.850642 0.772726 0.078731
-0.162456 -0.499995 -0.850654 -0.162450 -0.499985 -0.850642 0.863635 0.078731
0.723607 -0.525725 -0.447220 0.723594 -0.525712 -0.447188 0.727272 0.157461
0.425323 -0.309011 -0.850654 0.425306 -0.309000 -0.850642 0.681818 0.078731
0.850648 0.000000 -0.525736 0.850642 0.000000 -0.525712 0.636363 0.157461
0.000000 0.000000 -1.000000 0.000000 0.000000 -1.000000 0.090909 0.000000
-0.162456 -0.499995 -0.850654 -0.162450 -0.499985 -0.850642 0.045454 0.078731
-0.525730 0.000000 -0.850652 -0.525712 0.000000 -0.850642 0.136363 0.078731
0.000000 0.000000 -1.000000 0.000000 0.000000 -1.000000 0.272727 0.000000
-0.525730 0.000000 -0.850652 -0.525712 0.000000 -0.850642 0.227273 0.078731
-0.162456 0.499995 -0.850654 -0.162450 0.499985 -0.850642 0.318182 0.078731
0.000000 0.000000 -1.000000 0.000000 0.000000 -1.000000 0.454545 0.000000
-0.162456 0.499995 -0.850654 -0.162450 0.499985 -0.850642 0.409090 0.078731
0.425323 0.309011 -0.850654 0.425306 0.309000 -0.850642 0.500000 0.078731
0.951058 -0.309013 0.000000 0.951048 -0.309000 0.000000 0.681818 0.236191
-0.276388 -0.850649 -0.447220 -0.276376 -0.850642 -0.447218 0.909090 0.157461
0.262869 -0.809012 -0.525738 0.262856 -0.808985 -0.525712 0.818181 0.157461
0.000000 -1.000000 0.000000 0.000000 -1.000000 0.000000 0.863635 0.236191
-0.894426 0.000000 -0.447216 -0.894406 0.000000 -0.447188 0.181818 0.157461
-0.688189 -0.499997 -0.525736 -0.688162 -0.499985 -0.525712 0.090909 0.157461
-0.951058 -0.309013 0.000000 -0.951048 -0.309000 0.000000 0.136363 0.236191
-0.276388 0.850649 -0.447220 -0.276376 0.850642 -0.447218 0.363636 0.157461
-0.688189 0.499997 -0.525736 -0.688162 0.499985 -0.525712 0.272727 0.157461
-0.587786 0.809017 0.000000 -0.587756 0.809015 0.000000 0.318182 0.236191
0.723607 0.525725 -0.447220 0.723594 0.525712 -0.447188 0.545454 0.157461
0.262869 0.809012 -0.525738 0.262856 0.808985 -0.525712 0.454545 0.157461
0.587786 0.809017 0.000000 0.587756 0.809015 0.000000 0.500000 0.236191
0.587786 -0.809017 0.000000 0.587756 -0.809015 0.000000 0.772726 0.236191
-0.587786 -0.809017 0.000000 -0.587756 -0.809015 0.000000 0.954545 0.236191
-0.951058 0.309013 0.000000 -0.951048 0.309000 0.000000 0.227273 0.236191
0.000000 1.000000 0.000000 0.000000 1.000000 0.000000 0.409090 0.236191
0.951058 0.309013 0.000000 0.951048 0.309000 0.000000 0.590909 0.236191
0.276388 -0.850649 0.447220 0.276376 -0.850642 0.447218 0.818181 0.314921
0.688189 -0.499997 0.525736 0.688162 -0.499985 0.525712 0.727272 0.314921
0.162456 -0.499995 0.850654 0.162450 -0.499985 0.850642 0.772726 0.393651
-0.723607 -0.525725 0.447220 -0.723594 -0.525712 0.447188 1.000000 0.314921
-0.262869 -0.809012 0.525738 -0.262856 -0.808985 0.525712 0.909091 0.314921
-0.425323 -0.309011 0.850654 -0.425306 -0.309000 0.850642 0.954545 0.393651
-0.723607 0.525725 0.447220 -0.723594 0.525712 0.447188 0.272727 0.314921
-0.850648 0.000000 0.525736 -0.850642 0.000000 0.525712 0.181818 0.314921
-0.425323 0.309011 0.850654 -0.425306 0.309000 0.850642 0.227273 0.393651
0.276388 0.850649 0.447220 0.276376 0.850642 0.447218 0.454545 0.314921
-0.262869 0.809012 0.525738 -0.262856 0.808985 0.525712 0.363636 0.314921
0.162456 0.499995 0.850654 0.162450 0.499985 0.850642 0.409090 0.393651
0.894426 0.000000 0.447216 0.894406 0.000000 0.447188 0.636363 0.314921
0.688189 0.499997 0.525736 0.688162 0.499985 0.525712 0.545454 0.314921
0.525730 0.000000 0.850652 0.525712 0.000000 0.850642 0.590909 0.393651
0.162456 0.499995 0.850654 0.162450 0.499985 0.850642 0.500000 0.393651
0.000000 0.000000 1.000000 0.000000 0.000000 1.000000 0.545454 0.472382
-0.425323 0.309011 0.850654 -0.425306 0.309000 0.850642 0.318182 0.393651
0.000000 0.000000 1.000000 0.000000 0.000000 1.000000 0.363636 0.472382
-0.425323 -0.309011 0.850654 -0.425306 -0.309000 0.850642 0.136363 0.393651
0.000000 0.000000 1.000000 0.000000 0.000000 1.000000 0.181818 0.472382
-0.723607 -0.525725 0.447220 -0.723594 -0.525712 0.447188 0.090909 0.314921
0.162456 -0.499995 0.850654 0.162450 -0.499985 0.850642 0.863635 0.393651
0.000000 0.000000 1.000000 0.000000 0.000000 1.000000 0.909090 0.472382
0.525730 0.000000 0.850652 0.525712 0.000000 0.850642 0.681818 0.393651
0.000000 0.000000 1.000000 0.000000 0.000000 1.000000 0.727272 0.472382
-0.587786 -0.809017 0.000000 -0.587756 -0.809015 0.000000 0.045454 0.236191
-0.276388 -0.850649 -0.447220 -0.276376 -0.850642 -0.447218 0.000000 0.157461
0.425323 0.309011 -0.850654 0.425306 0.309000 -0.850642 0.590909 0.078731
0.000000 0.000000 -1.000000 0.000000 0.000000 -1.000000 0.636363 0.000000
3 0 1 2
3 3 4 5
3 6 7 8
3 9 10 11
3 12 13 14
3 3 5 15
3 16 17 18
3 19 20 21
3 22 23 24
3 25 26 27
3 3 15 28
3 16 18 29
3 19 21 30
3 22 24 31
3 25 27 32
3 33 34 35
3 36 37 38
3 39 40 41
3 42 43 44
3 45 46 47
3 47 48 49
3 47 46 48
3 46 42 48
3 44 50 51
3 44 43 50
3 43 39 50
3 41 52 53
3 41 40 52
3 40 54 52
3 38 55 56
3 38 37 55
3 37 33 55
3 35 57 58
3 35 34 57
3 34 45 57
3 32 46 45
3 32 27 46
3 27 42 46
3 31 43 42
3 31 24 43
3 24 39 43
3 30 40 39
3 30 21 40
3 21 54 40
3 29 37 36
3 29 18 37
3 18 33 37
3 28 34 33
3 28 15 34
3 15 45 34
3 27 31 42
3 27 26 31
3 26 22 31
3 24 30 39
3 24 23 30
3 23 19 30
3 21 59 54
3 21 20 59
3 20 60 59
3 18 28 33
3 18 17 28
3 17 3 28
3 15 32 45
3 15 5 32
3 5 25 32
3 14 26 25
3 14 13 26
3 13 22 26
3 11 23 22
3 11 10 23
3 10 19 23
3 8 20 19
3 8 7 20
3 7 60 20
3 5 61 25
3 5 4 61
3 4 62 61
3 2 17 16
3 2 1 17
3 1 3 17
